<?xml version="1.0" encoding="UTF-8"?>
<svg width="238px" height="36px" viewBox="0 0 238 36" version="1.1" xmlns="http://www.w3.org/2000/svg" xmlns:xlink="http://www.w3.org/1999/xlink">
    <!-- Generator: Sketch 44.1 (41455) - http://www.bohemiancoding.com/sketch -->
    <title>Group 2</title>
    <desc>Created with Sketch.</desc>
    <defs></defs>
    <g id="Page-1" stroke="none" stroke-width="1" fill="none" fill-rule="evenodd">
        <g id="Group-2" transform="translate(-1.000000, -3.000000)">
            <g id="Group" transform="translate(195.000000, 19.000000)" fill="#5A5A50">
                <rect id="Rectangle-2" x="0.2875" y="0" width="1" height="1"></rect>
                <rect id="Rectangle-2" transform="translate(0.500000, 0.506250) rotate(90.000000) translate(-0.500000, -0.506250) " x="0.29375" y="0.00625" width="1" height="1"></rect>
            </g>
            <g id="Maple_Leaf" transform="translate(201.000000, 19.000000)" fill-rule="nonzero" fill="#FF0000">
                <path d="M5.70967742,12.9778157 L5.85483871,10.1986954 C5.85911309,10.1061229 5.82112412,10.0166058 5.7515356,9.95527211 C5.68194707,9.89393843 5.58826043,9.8673998 5.49677419,9.8831058 L2.72580645,10.3693714 L3.1,9.33887482 C3.13112782,9.25480664 3.10518674,9.16028327 3.03548387,9.1037928 L0,6.64992293 L0.683870968,6.33111307 C0.779436448,6.2860304 0.826447179,6.17698598 0.793548387,6.07670924 L0.193548387,4.23469669 L1.94193548,4.60503138 C2.03959604,4.62535871 2.13808044,4.57418033 2.17741935,4.48265991 L2.51612903,3.6872454 L3.88064516,5.14926236 C3.94473151,5.21674352 4.0457288,5.23392878 4.12858923,5.19145144 C4.21144966,5.1489741 4.25630602,5.05701884 4.23870968,4.96570516 L3.58064516,1.57794781 L4.63548387,2.18658483 C4.68554301,2.21587394 4.74552178,2.22314542 4.80114825,2.20666903 C4.85677472,2.19019264 4.90307511,2.15144158 4.92903226,2.09963668 L6,-2.27373675e-13 L7.07096774,2.09963668 C7.09692489,2.15144158 7.14322528,2.19019264 7.19885175,2.20666903 C7.25447822,2.22314542 7.31445699,2.21587394 7.36451613,2.18658483 L8.41935484,1.57794781 L7.76129032,4.96570516 C7.74369398,5.05701884 7.78855034,5.1489741 7.87141077,5.19145144 C7.9542712,5.23392878 8.05526849,5.21674352 8.11935484,5.14926236 L9.48387097,3.6872454 L9.82258065,4.48265991 C9.86191956,4.57418033 9.96040396,4.62535871 10.0580645,4.60503138 L11.8064516,4.23469669 L11.2064516,6.07670924 C11.1735528,6.17698598 11.2205636,6.2860304 11.316129,6.33111307 L12,6.64992293 L8.96451613,9.1037928 C8.89481326,9.16028327 8.86887218,9.25480664 8.9,9.33887482 L9.27419355,10.3693714 L6.50322581,9.8831058 C6.41173957,9.8673998 6.31805293,9.89393843 6.2484644,9.95527211 C6.17887588,10.0166058 6.14088691,10.1061229 6.14516129,10.1986954 L6.29032258,12.9778157 L5.70967742,12.9778157 Z" id="Shape"></path>
            </g>
            <text id="CloudSpend" font-family="Kollektif" font-size="38" font-weight="normal" fill="#FFFFFF">
                <tspan x="0" y="31">CloudSpend</tspan>
            </text>
            <text id="io" font-family="Kollektif" font-size="38" font-weight="normal" fill="#FFFFFF">
                <tspan x="212" y="31">io</tspan>
            </text>
        </g>
    </g>
</svg>